<svg xmlns="http://www.w3.org/2000/svg" viewBox="0 0 1440 320">
  <path fill="#f46912" fill-opacity="1" d="M0,192L0,64L84.7,64L84.7,224L169.4,224L169.4,320L254.1,320L254.1,128L338.8,128L338.8,64L423.5,64L423.5,320L508.2,320L508.2,256L592.9,256L592.9,192L677.6,192L677.6,160L762.4,160L762.4,256L847.1,256L847.1,224L931.8,224L931.8,0L1016.5,0L1016.5,192L1101.2,192L1101.2,224L1185.9,224L1185.9,256L1270.6,256L1270.6,256L1355.3,256L1355.3,160L1440,160L1440,0L1355.3,0L1355.3,0L1270.6,0L1270.6,0L1185.9,0L1185.9,0L1101.2,0L1101.2,0L1016.5,0L1016.5,0L931.8,0L931.8,0L847.1,0L847.1,0L762.4,0L762.4,0L677.6,0L677.6,0L592.9,0L592.9,0L508.2,0L508.2,0L423.5,0L423.5,0L338.8,0L338.8,0L254.1,0L254.1,0L169.4,0L169.4,0L84.7,0L84.7,0L0,0L0,0Z"></path>
</svg>