<svg xmlns="http://www.w3.org/2000/svg" viewBox="0 0 1440 320"><path fill="#0099ff" fill-opacity="1" d="M0,32L0,256L102.9,256L102.9,96L205.7,96L205.7,320L308.6,320L308.6,160L411.4,160L411.4,256L514.3,256L514.3,160L617.1,160L617.1,288L720,288L720,288L822.9,288L822.9,32L925.7,32L925.7,96L1028.6,96L1028.6,320L1131.4,320L1131.4,288L1234.3,288L1234.3,320L1337.1,320L1337.1,192L1440,192L1440,0L1337.1,0L1337.1,0L1234.3,0L1234.3,0L1131.4,0L1131.4,0L1028.6,0L1028.6,0L925.7,0L925.7,0L822.9,0L822.9,0L720,0L720,0L617.1,0L617.1,0L514.3,0L514.3,0L411.4,0L411.4,0L308.6,0L308.6,0L205.7,0L205.7,0L102.9,0L102.9,0L0,0L0,0Z"></path></svg>