<svg data-v-423bf9ae="" xmlns="http://www.w3.org/2000/svg" viewBox="0 0 314.69388803706954 60" class="font"><!----><!----><!----><g data-v-423bf9ae="" id="1bef7cdc-93ba-455b-81d6-9489b70debd5" fill="black" transform="matrix(6.122449456230433,0,0,6.122449456230433,-1.7755067626275434,-11.816328097660907)"><path d="M0.50 6.39L0.50 1.94L5.41 1.94L5.41 3.57L2.45 3.57L2.45 5.89L5.00 5.89L5.04 5.91L5.02 5.95L5.02 5.95Q5.00 6.44 5.00 6.52L5.00 6.52L4.72 6.52L4.72 6.54L4.72 6.54Q4.72 6.71 4.69 7.29L4.69 7.29L4.95 7.29L4.95 7.29Q4.95 7.57 4.90 7.57L4.90 7.57L3.10 7.57L3.10 7.91L2.17 7.91L2.17 8.09L2.45 8.09L2.45 8.94L3.38 8.94L3.38 9.09L2.45 9.09L2.45 11.46L2.43 11.58L1.42 11.58L1.42 11.73L0.53 11.73L0.53 11.73Q0.50 11.73 0.50 11.70L0.50 11.70L0.50 11.45L0.52 11.29L1.00 11.29L1.00 11.04L0.50 11.04L0.50 10.10L0.73 10.10L0.73 6.64L1.13 6.64L1.13 6.39L0.50 6.39ZM0.33 8.75L0.33 8.44L0.40 8.44L0.40 8.44Q0.44 8.44 0.44 8.47L0.44 8.47L0.44 8.70L0.44 8.70Q0.44 8.80 0.49 8.80L0.49 8.80L0.55 8.80L0.55 8.80Q0.57 8.80 0.60 8.75L0.60 8.75L0.60 8.47L0.60 8.47Q0.61 8.44 0.64 8.44L0.64 8.44L0.70 8.44L0.70 8.75L0.70 8.75Q0.70 8.89 0.50 8.89L0.50 8.89L0.50 8.89Q0.33 8.87 0.33 8.75L0.33 8.75ZM2.48 8.68L2.48 8.60L2.50 8.60L2.50 8.60Q2.75 8.72 2.80 8.72L2.80 8.72L2.80 8.81L2.50 8.91L2.48 8.91L2.48 8.86L2.48 8.86Q2.48 8.84 2.68 8.76L2.68 8.76L2.68 8.75L2.68 8.75Q2.65 8.75 2.48 8.68L2.48 8.68ZM2.43 8.94L1.54 8.94L1.54 9.09L2.43 9.09L2.43 8.94ZM0.47 9.01L0.47 9.01L0.49 9.01L0.49 9.01Q0.66 9.01 0.66 9.16L0.66 9.16L0.55 9.16L0.55 9.16Q0.55 9.09 0.47 9.09L0.47 9.09L0.47 9.09Q0.44 9.09 0.42 9.14L0.42 9.14L0.42 9.14Q0.66 9.24 0.66 9.28L0.66 9.28L0.66 9.28Q0.66 9.29 0.68 9.32L0.68 9.32L0.68 9.32Q0.68 9.45 0.49 9.47L0.49 9.47L0.49 9.47Q0.30 9.45 0.30 9.30L0.30 9.30L0.42 9.30L0.42 9.30Q0.42 9.37 0.45 9.37L0.45 9.37L0.53 9.37L0.53 9.37Q0.57 9.37 0.57 9.34L0.57 9.34L0.57 9.30L0.57 9.30Q0.32 9.24 0.32 9.17L0.32 9.17L0.32 9.11L0.32 9.11Q0.38 9.01 0.47 9.01ZM0.30 9.58L0.30 9.58L0.36 9.58L0.36 9.58Q0.45 9.58 0.49 9.72L0.49 9.72L0.60 9.58L0.68 9.58L0.68 9.62L0.68 9.62Q0.57 9.78 0.57 9.84L0.57 9.84L0.57 9.84Q0.59 9.84 0.70 10.01L0.70 10.01L0.70 10.04L0.60 10.04L0.60 10.04Q0.59 10.04 0.49 9.90L0.49 9.90L0.49 9.90Q0.42 10.02 0.38 10.04L0.38 10.04L0.29 10.04L0.29 10.04Q0.40 9.83 0.44 9.82L0.44 9.82L0.44 9.82Q0.30 9.62 0.30 9.58ZM7.29 7.57L8.97 1.96L10.62 1.96L10.62 1.96Q10.65 2.10 12.22 7.29L12.22 7.29L12.52 7.29L12.52 10.51L11.84 10.51L11.84 10.76L12.52 10.76L12.52 11.45L10.70 11.45L10.70 9.47L8.48 9.47L8.48 10.32L7.57 10.32L7.57 11.73L5.92 11.73L5.92 11.63L6.05 11.63L6.05 10.32L6.73 10.32L6.73 7.57L7.29 7.57ZM9.78 4.71L9.74 4.71L9.74 4.72L9.74 4.72Q9.53 5.89 8.92 8.40L8.92 8.40L10.45 8.40L10.45 7.29L10.32 7.29L10.32 7.29Q9.78 4.92 9.78 4.71L9.78 4.71ZM5.44 7.57L5.44 7.28L6.73 7.28L6.73 7.57L5.44 7.57ZM10.70 11.73L10.70 11.57L12.89 11.57L12.89 11.73L10.70 11.73ZM15.94 1.96L15.94 1.96L15.94 1.96Q17.57 1.96 18.12 3.01L18.12 3.01L18.12 3.01Q18.50 3.80 18.50 4.56L18.50 4.56L18.49 4.56L18.49 4.56Q17.38 4.66 16.97 4.66L16.97 4.66L16.97 4.66Q16.97 4.12 16.63 3.75L16.63 3.75L16.63 3.75Q16.32 3.57 16.05 3.57L16.05 3.57L15.78 3.57L15.78 3.57Q15.08 3.57 14.93 4.11L14.93 4.11L14.93 4.11Q14.90 4.27 14.90 4.35L14.90 4.35L14.90 4.50L14.90 4.50Q14.90 5.26 15.70 5.61L15.70 5.61L15.70 5.61Q15.77 5.67 16.82 6.12L16.82 6.12L16.82 6.12Q17.38 6.38 17.86 6.76L17.86 6.76L17.86 6.77L16.15 6.77L16.15 6.97L18.41 6.97L18.41 7.24L18.70 7.24L18.70 10.21L18.14 10.21L18.14 11.73L13.79 11.73L13.79 10.21L12.76 10.21L12.76 9.18L13.34 9.18L13.34 8.83L12.76 8.83L12.76 8.59L14.75 8.59L14.75 10.21L16.79 10.21L16.79 7.77L15.26 7.77L15.26 6.97L13.37 6.97L13.37 6.77L14.29 6.77L14.29 6.76L14.29 6.76Q13.08 5.96 13.08 4.50L13.08 4.50L13.08 4.37L13.08 4.37Q13.08 3.14 13.84 2.51L13.84 2.51L13.84 2.51Q14.52 1.96 15.94 1.96ZM18.41 6.97L18.41 6.77L19.10 6.77L19.10 6.97L18.41 6.97ZM12.11 9.18L12.11 8.83L12.76 8.83L12.76 9.18L12.11 9.18ZM18.92 3.57L18.92 1.93L24.66 1.93L24.66 3.57L22.76 3.57L22.76 10.34L23.62 10.34L23.62 10.54L22.76 10.54L22.76 11.29L22.24 11.29L22.24 11.55L22.61 11.55L22.61 11.73L20.86 11.73L20.86 11.73Q20.83 11.73 20.83 11.70L20.83 11.70L20.83 3.57L18.92 3.57ZM22.74 10.34L22.08 10.34L22.08 10.54L22.74 10.54L22.74 10.34ZM28.05 1.93L28.05 1.93L28.05 1.93Q30.11 1.93 30.64 3.21L30.64 3.21L30.64 3.21Q30.79 3.53 30.79 3.63L30.79 3.63L29.93 3.63L29.93 3.89L30.85 3.89L30.85 3.88L30.85 3.88Q30.85 3.81 30.79 3.63L30.79 3.63L32.37 3.63L32.37 3.89L30.87 3.89L30.87 3.91L30.87 3.91Q30.99 4.46 31.04 5.09L31.04 5.09L31.04 5.09Q31.04 5.13 29.24 5.22L29.24 5.22L29.24 5.21L29.24 5.21Q29.24 3.58 28.12 3.58L28.12 3.58L27.92 3.58L27.92 3.58Q27.08 3.58 26.90 4.29L26.90 4.29L26.90 4.29Q26.75 4.89 26.75 5.87L26.75 5.87L26.75 7.20L26.74 7.40L26.11 7.40L26.11 7.71L26.74 7.71L26.74 10.08L29.37 10.08L29.37 7.62L30.88 7.62L30.88 10.08L30.04 10.08L30.04 11.60L28.29 11.60L28.29 11.73L26.92 11.73L26.92 11.60L25.53 11.60L25.53 10.84L26.46 10.84L26.46 10.51L25.07 10.51L25.07 9.39L24.48 9.39L24.48 8.01L24.79 8.01L24.79 8.01Q24.77 7.15 24.77 6.66L24.77 6.66L24.77 6.66Q24.77 4.42 24.99 3.84L24.99 3.84L24.99 3.84Q25.19 3.17 25.65 2.69L25.65 2.69L25.65 2.69Q26.46 1.93 28.05 1.93ZM26.87 9.59L26.87 9.59L26.95 9.59L26.95 9.93L27.15 9.93L27.15 10.04L26.87 10.04L26.87 10.04Q26.84 10.04 26.84 10.00L26.84 10.00L26.84 9.63L26.84 9.63Q26.84 9.59 26.87 9.59ZM28.92 9.60L28.92 9.59L29.03 9.59L29.03 9.59Q29.11 9.66 29.11 9.72L29.11 9.72L29.11 9.72Q29.12 9.72 29.22 9.59L29.22 9.59L29.31 9.59L29.31 9.63L29.31 9.63Q29.19 9.78 29.19 9.84L29.19 9.84L29.19 9.84Q29.21 9.84 29.32 10.01L29.32 10.01L29.32 10.04L29.22 10.04L29.11 9.91L29.11 9.91Q29.05 10.02 29.01 10.04L29.01 10.04L28.91 10.04L28.91 10.04Q28.94 9.97 29.06 9.80L29.06 9.80L28.92 9.60ZM30.28 10.19L30.28 10.19L30.28 10.19Q30.44 10.23 30.44 10.28L30.44 10.28L30.44 10.35L30.37 10.35L30.31 10.28L30.24 10.28L30.24 10.28Q30.21 10.29 30.21 10.32L30.21 10.32L30.21 10.35L30.21 10.35Q30.46 10.40 30.46 10.46L30.46 10.46L30.46 10.51L30.46 10.51Q30.46 10.64 30.31 10.64L30.31 10.64L30.24 10.64L30.24 10.64Q30.15 10.64 30.10 10.55L30.10 10.55L30.10 10.48L30.19 10.48L30.19 10.48Q30.19 10.56 30.29 10.56L30.29 10.56L30.31 10.56L30.31 10.56Q30.33 10.56 30.36 10.51L30.36 10.51L30.36 10.51Q30.36 10.49 30.13 10.40L30.13 10.40L30.11 10.36L30.11 10.28L30.11 10.28Q30.11 10.23 30.28 10.19ZM35.23 1.95L35.23 1.95L35.23 1.95Q37.34 1.95 38.00 3.42L38.00 3.42L38.00 3.42Q38.38 4.14 38.38 6.19L38.38 6.19L38.38 6.23L37.65 6.23L37.65 6.56L38.38 6.56L38.38 10.10L37.90 10.10L37.90 11.37L36.95 11.37L36.95 11.73L33.63 11.73L33.63 11.37L33.22 11.37L33.22 10.10L32.37 10.10L32.37 9.10L32.87 9.10L32.87 8.57L32.37 8.57L32.37 9.10L31.16 9.10L31.16 8.57L32.07 8.57L32.07 8.57Q32.06 7.38 32.06 6.74L32.06 6.74L32.06 5.91L32.06 5.91Q32.06 3.58 32.85 2.80L32.85 2.80L32.85 2.80Q33.56 1.95 35.23 1.95ZM34.04 5.32L34.04 5.32L34.06 5.32L34.04 5.35L34.04 6.23L33.30 6.23L33.30 6.56L34.04 6.56L34.04 6.56Q34.02 8.67 34.02 9.75L34.02 9.75L34.02 10.10L35.66 10.10L35.66 9.56L36.41 9.56L36.41 9.54L36.41 9.54Q36.41 8.54 36.39 6.75L36.39 6.75L36.39 6.75Q36.39 6.68 36.41 6.38L36.41 6.38L36.41 6.38Q36.41 4.45 36.18 4.01L36.18 4.01L36.18 4.01Q35.95 3.58 35.33 3.58L35.33 3.58L35.09 3.58L35.09 3.58Q34.34 3.58 34.17 4.24L34.17 4.24L34.17 4.24Q34.08 4.56 34.04 5.32ZM38.38 6.56L38.38 6.23L39.55 6.23L39.55 6.56L38.38 6.56ZM39.59 6.62L39.59 1.96L42.57 1.96L42.57 1.96Q44.43 1.96 45.12 3.22L45.12 3.22L45.12 3.22Q45.73 4.20 45.73 6.49L45.73 6.49L46.02 6.49L46.02 8.83L43.12 8.83L43.12 8.56L44.03 8.56L44.03 6.49L43.76 6.49L43.76 5.63L43.76 5.63Q43.76 4.19 43.12 3.79L43.12 3.79L43.12 3.79Q42.75 3.58 41.91 3.58L41.91 3.58L41.51 3.58L41.51 6.44L41.78 6.44L41.78 8.83L39.83 8.83L39.83 6.62L39.59 6.62ZM38.72 9.13L38.72 8.83L39.60 8.83L39.60 9.13L41.78 9.13L41.78 9.78L43.12 9.78L43.12 9.13L46.02 9.13L46.02 9.78L44.03 9.78L44.03 11.52L41.78 11.52L41.78 11.73L39.62 11.73L39.62 11.73Q39.59 11.73 39.59 11.70L39.59 11.70L39.59 9.13L38.72 9.13ZM41.78 9.13L41.78 8.83L43.12 8.83L43.12 9.13L41.78 9.13ZM46.02 9.13L46.02 8.83L47.94 8.83L47.94 9.13L46.02 9.13ZM46.87 6.80L46.87 2.00L51.66 2.00L51.66 3.60L51.66 3.60Q51.66 3.63 51.63 3.63L51.63 3.63L48.78 3.63L48.78 5.74L51.33 5.74L51.33 5.76L51.33 5.76Q51.33 5.84 51.30 6.79L51.30 6.79L51.30 6.79Q51.28 6.79 51.28 6.80L51.28 6.80L51.40 6.80L51.40 7.29L49.19 7.29L49.19 9.29L48.60 9.29L48.60 9.49L49.19 9.49L49.19 10.10L51.69 10.10L51.69 10.32L51.50 10.32L51.50 11.52L48.50 11.52L48.50 11.73L47.08 11.73L47.08 8.24L46.87 8.24L46.87 7.01L45.31 7.01L45.31 6.80L46.87 6.80ZM47.68 6.80L46.88 6.80L46.88 7.01L47.68 7.01L47.68 6.80Z"></path></g><!----><!----></svg>